<?xml version="1.0" encoding="UTF-8"?>
<svg id="_レイヤー_1" data-name="レイヤー_1" xmlns="http://www.w3.org/2000/svg" xmlns:xlink="http://www.w3.org/1999/xlink" version="1.1" viewBox="0 0 335 63">
  <!-- Generator: Adobe Illustrator 29.8.2, SVG Export Plug-In . SVG Version: 2.1.1 Build 3)  -->
  <defs>
    <style>
      .st0 {
        fill: none;
      }

      .st1 {
        fill: #fff;
        opacity: .9;
      }

      .st2 {
        fill: #231815;
      }

      .st3 {
        fill: url(#_名称未設定グラデーション);
      }

      .st4 {
        clip-path: url(#clippath);
      }
    </style>
    <clipPath id="clippath">
      <path class="st0" d="M64.24,42.95h.06c.5,0,1-.01,1.5-.04.2.53.41,1.04.63,1.52-.46.2-.97.31-1.48.32-.25-.57-.49-1.18-.7-1.8M66.49,42.87c.41-.02.94-.04,1.56-.06.03.07.06.15.09.22-.02.04-.05.07-.08.11-.29.39-.64.73-1.06.99-.18-.4-.36-.82-.52-1.25M62.53,44.02c-.45-.33-.83-.75-1.11-1.23.71.09,1.42.14,2.11.16.21.61.43,1.19.66,1.76-.61-.1-1.18-.34-1.67-.69M78.6,42.72c.64,0,1.26-.04,1.88-.09-.29.54-.69,1.01-1.18,1.37-.45.33-.97.56-1.51.67.3-.65.57-1.31.81-1.96M79.26,40.57c.56-.02,1.12-.06,1.64-.13.04.5,0,1.01-.16,1.51-.63.06-1.27.09-1.93.11.16-.49.31-.99.44-1.49M79.85,38.4c.08,0,.16-.01.24-.02.03.04.05.07.08.11.29.39.49.84.62,1.31-.44.05-.89.09-1.36.11.11-.4.24-.91.41-1.5M73.78,47.31c1.19-1.64,2.3-4.25,3.21-7.56.1-.37.46-1.54,1.08-3.48.58.52,1.03.99,1.33,1.32-.33,1.13-.56,1.98-.71,2.53-.41,1.65-.99,3.24-1.73,4.75-.03.04-.04.08-.06.11-.57,1.15-1.21,2.23-1.93,3.2-1.96,2.71-4.87,4.48-8.18,5.01-3.31.53-6.62-.26-9.32-2.23-3.73-2.71-5.65-7.17-5.07-11.72.44.39.91.74,1.39,1.06-.18,3.73,1.51,7.26,4.55,9.45,1.93,1.4,4.16,2.08,6.38,2.1h.09c3.42,0,6.8-1.58,8.95-4.55M64.8,49.72c.47,0,.94-.04,1.42-.11,2.35-.37,4.41-1.64,5.81-3.56,1.09-1.49,2.16-3.99,2.88-6.69.11-.39.58-1.89,1.41-4.48.4.28.8.58,1.19.91-.66,2.06-1.06,3.37-1.17,3.78-.89,3.24-1.96,5.78-3.11,7.35-3.36,4.63-9.87,5.66-14.51,2.31-2.74-1.98-4.32-5.15-4.28-8.53.48.28.99.53,1.51.75.19,2.63,1.51,5.02,3.65,6.58,1.51,1.1,3.29,1.68,5.13,1.69h.08-.01ZM64.82,47.58c2.09,0,4.16-.96,5.48-2.78.86-1.17,2.06-3.46,2.64-6.03.13-.58.66-2.29,1.59-5.09.5.36.91.64,1.22.84-.86,2.7-1.36,4.28-1.47,4.68-.71,2.63-1.74,5.04-2.78,6.47-2.67,3.68-7.83,4.49-11.52,1.83-1.89-1.37-3.1-3.46-3.35-5.77.13.04.25.09.37.13.36.11.74.23,1.21.35.34,1.66,1.28,3.11,2.64,4.09,1.18.86,2.55,1.27,3.91,1.29h.07ZM64.82,45.44c1.43,0,2.84-.66,3.74-1.9.68-.94,1.91-3.17,2.51-5.49.21-.82.82-2.75,1.76-5.59.39.28.77.56,1.13.81-.97,2.94-1.53,4.73-1.67,5.34-.56,2.48-1.71,4.67-2.53,5.79-1.98,2.72-5.8,3.33-8.53,1.35-1.14-.83-1.96-2.02-2.31-3.38.56.13,1.11.24,1.68.32.33.74.85,1.39,1.51,1.86.81.59,1.73.87,2.66.88h.06ZM59.85,33.08c-.46-.15-.89-.39-1.27-.69.33-.29.67-.59,1.03-.88.15.39.34.87.54,1.46-.06.05-.12.11-.19.16-.04-.01-.09-.03-.12-.04M70.01,33.68c-.16-.52-.35-1.08-.53-1.64.45-.32.92-.66,1.39-1,.44.33.91.67,1.39,1.01-.17.52-.36,1.08-.54,1.63h-1.71M76.59,46.91c.29-.48.56-.98.82-1.49.81-.09,1.59-.38,2.24-.86.39-.29.74-.63,1.02-1.02,1.18-1.62,1.18-3.81,0-5.42-.68-.94-2.42-2.78-4.45-4.08-.71-.46-2.37-1.63-4.78-3.41.39-.29.77-.56,1.13-.82,2.5,1.83,4.03,2.91,4.58,3.23,2.18,1.3,3.91,3.07,4.73,4.2.96,1.31,1.34,2.92,1.09,4.53-.26,1.61-1.12,3.02-2.43,3.98-1.04.76-2.28,1.16-3.57,1.16h-.05c-.11,0-.21,0-.32-.01M57.37,30.6c.47-.41.97-.82,1.5-1.22.16.49.34.99.52,1.46-.44.34-.86.7-1.26,1.07-.34-.38-.59-.83-.76-1.31M76.98,47.56c1.42,0,2.8-.44,3.96-1.29.58-.42,1.08-.92,1.49-1.49,1.73-2.38,1.73-5.57,0-7.94-.86-1.17-2.66-3.02-4.93-4.38-.51-.3-1.97-1.34-4.36-3.08.5-.38.89-.68,1.18-.9,2.3,1.66,3.65,2.61,4.01,2.85,2.28,1.48,4.26,3.21,5.3,4.64,2.67,3.67,1.86,8.83-1.82,11.5-1.89,1.37-4.25,1.87-6.53,1.4.09-.11.16-.21.24-.31.22-.31.44-.64.7-1.04.24.03.46.04.69.04h.06,0ZM82.21,48c.76-.55,1.42-1.21,1.96-1.96,2.28-3.13,2.28-7.33,0-10.46-1.09-1.49-3.13-3.28-5.48-4.81-.34-.22-1.63-1.14-3.83-2.72.39-.29.8-.58,1.24-.85,1.8,1.29,2.88,2.05,3.23,2.28,2.81,1.85,4.9,3.66,6.04,5.23,1.64,2.24,2.29,4.98,1.86,7.72-.44,2.73-1.91,5.14-4.15,6.78-2.74,1.98-6.24,2.51-9.44,1.44.41-.37.81-.77,1.18-1.2.69.17,1.39.26,2.09.26h.08c1.86,0,3.68-.59,5.23-1.7M57.33,28.08c.17-.53.46-1.02.83-1.43.14.71.31,1.39.5,2.06-.51.38-1,.77-1.47,1.17-.09-.61-.04-1.22.14-1.8M83.03,28.34c.19-.6.36-1.21.5-1.81.43.44.76.96.94,1.54.17.53.23,1.09.17,1.64-.52-.49-1.06-.95-1.61-1.37M83.46,49.73c.95-.69,1.77-1.51,2.46-2.45,1.01-1.39,1.69-3.03,1.96-4.76.46-2.91-.24-5.83-1.98-8.21-1.19-1.63-3.33-3.49-6.21-5.38-.32-.21-1.3-.9-2.98-2.1.67-.39,1.26-.67,1.66-.86.96.66,1.7,1.14,2.2,1.45,1.44.9,2.78,1.95,3.98,3.11.03.04.06.07.09.09.91.89,1.74,1.84,2.46,2.82,4.06,5.58,2.82,13.42-2.76,17.48-3.73,2.71-8.57,3.16-12.73,1.19.51-.3.99-.64,1.44-.99,1.25.47,2.54.71,3.83.72h.09c2.3,0,4.56-.72,6.48-2.11M81.19,27.04c.15-.54.28-1.08.39-1.6.49.11.96.32,1.39.61-.14.61-.3,1.24-.49,1.87-.41-.3-.84-.59-1.28-.88M79.3,25.8c.02-.08.04-.16.06-.24.04-.01.09-.03.12-.04.46-.15.95-.21,1.44-.19-.09.44-.19.88-.31,1.32-.34-.22-.77-.5-1.3-.86M63.89,35.76c-1.91-.01-3.64-.34-4.68-.68-1.55-.5-2.81-1.58-3.55-3.03s-.87-3.11-.37-4.65c.44-1.34,1.32-2.48,2.51-3.24.05.56.12,1.13.21,1.69-.61.54-1.06,1.24-1.31,2.01-.38,1.17-.28,2.42.28,3.52.56,1.1,1.51,1.91,2.68,2.29,1.1.36,3.61.84,6,.69.86-.05,2.83-.07,5.87-.06-.15.46-.29.91-.43,1.33-3.09-.01-4.98.01-5.6.06-.5.04-1,.06-1.49.06h-.14M68.86,30.03c2.51-1.81,4.03-2.93,4.5-3.35,1.91-1.68,4.14-2.77,5.46-3.2,1.55-.5,3.2-.37,4.66.36,1.46.74,2.53,2,3.03,3.54.44,1.34.39,2.78-.12,4.1-.37-.43-.76-.84-1.17-1.24.17-.79.13-1.62-.12-2.39-.38-1.17-1.2-2.12-2.3-2.68s-2.35-.66-3.52-.28c-1.1.36-3.41,1.44-5.25,2.96-.66.54-2.28,1.74-4.72,3.49-.15-.46-.29-.91-.44-1.32M63.79,37.8c-2.05-.01-3.93-.26-5.24-.68-2.09-.68-3.8-2.13-4.8-4.09-1-1.96-1.18-4.19-.5-6.28.72-2.22,2.33-4.01,4.46-4.96v.39c0,.38.01.79.04,1.25-1.47.84-2.56,2.17-3.08,3.78-.56,1.71-.41,3.54.41,5.15s2.22,2.8,3.93,3.36c1.38.45,3.93.89,6.56.64.59-.06,2.38-.08,5.34-.06-.19.6-.33,1.08-.42,1.42-2.85.01-4.5.03-4.92.05-.52.03-1.04.04-1.54.04h-.24M68.16,27.98c2.29-1.68,3.62-2.66,3.95-2.93,2.11-1.71,4.38-3.06,6.05-3.61,4.32-1.41,8.98.96,10.39,5.28.72,2.22.47,4.62-.69,6.63-.08-.11-.15-.22-.23-.32-.22-.3-.46-.61-.77-.99.7-1.54.79-3.26.27-4.86-.56-1.71-1.75-3.11-3.36-3.93s-3.44-.96-5.15-.41c-1.38.45-3.7,1.59-5.69,3.33-.45.39-1.88,1.46-4.28,3.18-.21-.6-.37-1.07-.49-1.39M66.94,22.3v-.13c0-.49.09-.96.26-1.42.39.21.77.46,1.16.71-.31.26-.71.57-1.22.97-.07-.04-.14-.09-.21-.12M63.61,39.88c-2.36-.02-4.31-.26-5.72-.72-5.45-1.76-8.45-7.63-6.68-13.07,1.04-3.21,3.57-5.7,6.79-6.7-.11.54-.2,1.1-.25,1.66-2.45.99-4.32,2.98-5.13,5.5-.74,2.26-.54,4.66.54,6.78,1.09,2.12,2.92,3.68,5.18,4.42,1.75.57,4.47.82,7.26.67.4-.02,1.98-.04,4.7-.05-.14.46-.31.94-.49,1.41-2.24.01-3.54.04-3.96.06-.67.03-1.31.04-1.93.04h-.31M67.49,20.15c.17-.29.37-.54.61-.78.12-.12.25-.24.41-.35.54.31,1.09.67,1.63,1.05-.41.3-.83.61-1.23.94-.46-.31-.94-.6-1.41-.86M67.49,25.91c1.77-1.31,2.83-2.1,3.17-2.37,2.63-2.1,4.99-3.52,6.84-4.12,2.64-.86,5.45-.64,7.93.62,2.47,1.26,4.31,3.4,5.17,6.03,1.05,3.21.46,6.7-1.55,9.4-.22-.51-.49-1.01-.78-1.49,1.4-2.23,1.73-4.95.91-7.45-.74-2.26-2.31-4.1-4.43-5.17-2.12-1.08-4.53-1.26-6.8-.53-1.75.57-4.09,1.96-6.27,3.72-.31.25-1.54,1.17-3.77,2.8-.16-.46-.31-.94-.43-1.44M69.14,18.65c.55-.28,1.15-.42,1.76-.42.55,0,1.11.11,1.61.34-.63.35-1.24.72-1.81,1.11-.51-.36-1.04-.71-1.58-1.04M57.23,41.2c-6.58-2.13-10.19-9.2-8.05-15.76,1.42-4.38,5.08-7.58,9.6-8.43-.23.54-.43,1.09-.59,1.65-3.61.99-6.45,3.68-7.6,7.24-.91,2.8-.67,5.79.67,8.42s3.63,4.58,6.43,5.48c1.92.62,4.76.87,8.2.71.4-.01,1.69-.04,3.65-.05-.31.71-.62,1.28-.84,1.67-1.18.04-2.06.07-2.63.11-1.7.11-3.4.06-5.06-.18-.04-.01-.1-.02-.12-.01-1.27-.19-2.49-.47-3.65-.84M67.01,23.37c.94-.72,1.63-1.27,2.06-1.64,1.31-1.09,2.71-2.04,4.19-2.83.05-.01.09-.04.11-.06,1.14-.59,2.3-1.09,3.45-1.46,3.18-1.04,6.58-.76,9.56.75,2.98,1.52,5.2,4.1,6.23,7.28,1.43,4.38.36,9.12-2.8,12.45-.13-.56-.3-1.13-.5-1.68.12-.15.23-.29.33-.43,2.1-2.88,2.67-6.49,1.56-9.89-.91-2.8-2.86-5.08-5.5-6.42-2.63-1.34-5.63-1.57-8.43-.66-1.92.62-4.36,2.09-7.05,4.23-.31.25-1.32,1-2.92,2.18-.16-.76-.25-1.4-.3-1.85M66.16,28.37c-1-2.33-1.36-4.78-1.36-6.18,0-3.36,2.73-6.09,6.1-6.1h.06c1.39.01,2.73.5,3.81,1.39-.53.22-1.04.46-1.54.73-.71-.41-1.51-.62-2.32-.62-2.55,0-4.61,2.07-4.61,4.61,0,1.15.32,3.68,1.2,5.91.39.99,1.21,3.51,1.86,5.56h-1.39c-.94-2.94-1.55-4.73-1.8-5.3M64.21,29.06c-.98-2.53-1.56-5.11-1.56-6.86,0-2.2.86-4.26,2.41-5.82,1.56-1.56,3.63-2.41,5.83-2.41h.08c2.31.02,4.48,1,6.03,2.7-.13.04-.25.08-.38.11-.36.11-.75.26-1.18.43-1.25-1.14-2.86-1.76-4.55-1.76-1.8,0-3.5.71-4.78,1.98-1.28,1.28-1.98,2.97-1.98,4.77,0,1.45.37,4.01,1.41,6.43.23.54.81,2.23,1.71,5.05-.63,0-1.13.02-1.48.04-.91-2.74-1.42-4.26-1.57-4.66M64.62,33.76c-.33,0-.66-.01-1.01-.04-.71-2.13-1.13-3.36-1.28-3.74-1.19-3.15-1.81-5.83-1.81-7.77,0-2.77,1.08-5.38,3.04-7.34s4.57-3.04,7.35-3.04h.09c3.35.03,6.45,1.66,8.38,4.38-.56.06-1.11.15-1.66.28-1.69-2-4.13-3.16-6.74-3.18h-.08c-2.38,0-4.61.93-6.29,2.61-1.69,1.69-2.61,3.91-2.61,6.28,0,1.84.6,4.5,1.61,7.1.14.37.65,1.87,1.5,4.45h-.49M61.05,33.38c-.4-1.11-.71-1.94-.92-2.46-.64-1.57-1.11-3.21-1.4-4.86,0-.05-.01-.09-.02-.12-.21-1.26-.33-2.52-.33-3.72,0-6.9,5.62-12.52,12.52-12.52h.11c4.57.04,8.7,2.51,10.88,6.5-.59-.05-1.17-.07-1.76-.04-2.03-3.1-5.44-4.95-9.14-4.98h-.1c-2.95,0-5.73,1.15-7.81,3.23-2.08,2.08-3.23,4.86-3.23,7.8,0,2.02.64,4.78,1.86,8,.14.37.54,1.54,1.18,3.45-.76-.08-1.41-.19-1.85-.29M70.9,9.01c-5.02,0-9.52,2.78-11.78,7.27-4.97.76-9.01,4.18-10.56,8.96-1.55,4.77-.29,9.9,3.28,13.43-.81,4.96,1.2,9.85,5.27,12.8,2.28,1.65,4.93,2.5,7.62,2.52,2.11.01,4.23-.47,6.19-1.49,4.46,2.31,9.75,1.91,13.82-1.05,1.12-.81,2.11-1.79,2.91-2.91,2.06-2.83,2.91-6.43,2.34-9.89.52-.51,1.01-1.08,1.43-1.66,2.49-3.43,3.16-7.73,1.84-11.79-1.56-4.76-5.59-8.18-10.56-8.94-2.24-4.45-6.7-7.22-11.67-7.26h-.12Z"/>
    </clipPath>
    <linearGradient id="_名称未設定グラデーション" data-name="名称未設定グラデーション" x1="-667.54" y1="-7579.4" x2="-666.95" y2="-7579.4" gradientTransform="translate(-487745.79 378547.75) rotate(57.22) scale(81.15)" gradientUnits="userSpaceOnUse">
      <stop offset="0" stop-color="#eccd95"/>
      <stop offset=".3" stop-color="#e5b67e"/>
      <stop offset=".52" stop-color="#e0b570"/>
      <stop offset=".71" stop-color="#d69d59"/>
      <stop offset="1" stop-color="#9e6637"/>
      <stop offset="1" stop-color="#9e6637"/>
    </linearGradient>
  </defs>
  <rect class="st1" width="335" height="63"/>
  <g id="b">
    <g id="c">
      <g>
        <g class="st4">
          <polygon class="st3" points="80.64 -12.62 115.46 41.39 60.95 76.43 26.12 22.43 80.64 -12.62"/>
        </g>
        <g>
          <path class="st2" d="M270.64,12.44c.56.26,1.64.88,2.23,1.41.39.33.69.84.69,1.19,0,.41-.24,1.04-.49,1.34-.03.05-.08.1-.14.14,0,0-.32.21-.61,0-.15-.13-.25-.38-.39-.75-.41-1.2-1.1-2.44-1.55-3.07-.09-.14-.11-.22-.07-.27.04-.06.12-.08.31.01"/>
          <path class="st2" d="M274.49,12.15c.52.73,1.27,1.76,1.73,3.3.21.76.31,1.01.7,1.01.24,0,.44-.12.59-.35.21-.28.44-.82.41-1.34-.04-.96-1.84-2.21-3.18-2.89-.1-.05-.24-.05-.29.02-.04.06-.02.14.05.24"/>
          <path class="st2" d="M126.55,14.16c-.76-.59-1.04-.79-1.76-1.53-.04-.05-.13-.04-.17,0-.2.24-.29.39-.41.54-.05.05-.09.09-.13.14-.06.06-.14.13-.23.2-.41.33-.94.31-.94.31h-9.5c-.69-.46-.94-.64-1.71-1.07-.05-.03-.11-.03-.16,0-.05.03-.08.09-.08.14v.48c.03,1.09.03,1.6.03,3.05v8.13c-.03,3.42,0,4.38,0,6.66.03.31.14.42.46.42.46,0,1.11-.06,1.34-.24.08-.08.11-.16.11-.31v-1.19h10.32v1.23c0,.31.28.31.53.31.39,0,.97-.04,1.13-.12.17-.07.24-.22.24-.39v-.07c-.01-4,0-7.18,0-9.06v-5.76c.01-.47.04-.78.31-.98.15-.11.3-.18.48-.26.17-.09.28-.22.28-.36,0-.07-.03-.18-.14-.26M123.73,29.09h-10.32v-7h10.32v7ZM123.73,21.28h-10.32v-6.63h10.32v6.63h0Z"/>
          <path class="st2" d="M204.54,12.71c.82.21,2.31.72,3,1.16.46.3.75.74.75,1.26,0,.69-.29,1.42-.74,1.42-.26,0-.49-.23-.71-.61-.32-.54-.79-1.2-1.48-1.98-.4-.44-.76-.79-.98-.98-.09-.07-.14-.15-.11-.23.06-.09.18-.06.28-.04"/>
          <path class="st2" d="M203.09,16.75c.89.28,2.31.82,2.92,1.24.49.31.72.71.72,1.22,0,.69-.28,1.42-.7,1.42-.22,0-.39-.19-.59-.51-.76-1.18-1.67-2.26-2.55-3.08-.12-.12-.1-.21-.08-.25.02-.04.11-.11.28-.06"/>
          <path class="st2" d="M175.88,12.16c-.14-.06-.32-.16-.54-.29-.14-.07-.29-.16-.46-.24-.04-.02-.09-.02-.14,0s-.07.06-.09.1c-.03.1-.06.19-.08.29h0c-.32,1.25-.76,2.36-1.54,3.91-.39-.28-.96-.61-1.36-.79,0,0-.24-.11-.33-.02-.1.11.09.28.09.28.74.9,1.34,1.98,1.83,3.17.13.29.35.64.61.64.37,0,.81-.86.81-1.29s-.26-.82-1.02-1.47c.98-1,1.31-1.43,2.11-2.65.09-.14.23-.23.44-.28.29-.07.65-.03.75-.3.13-.34-.19-.56-1.09-1.04"/>
          <path class="st2" d="M178.69,20.55c-.52-.59-1.24-1.19-1.62-1.48-.06-.04-.17-.09-.25-.01-.04.04-.06.11-.01.2.24.47.5,1.01.74,1.66-1.19.16-1.73.21-3.06.29,1.32-1.36,2.43-2.73,3.83-4.72.08-.08.19-.13.32-.16.26-.06.58,0,.66-.26.11-.31-.17-.51-.96-.98-.12-.06-.29-.16-.48-.27-.12-.07-.26-.15-.4-.24-.04-.02-.08-.02-.11,0s-.06.05-.08.09c-.03.09-.03.14-.07.26h0c-.71,1.63-2.16,4.03-3.48,5.8-.26.35-.28.39-.39.55-.79.04-1.27.03-1.53.03-.16,0-.36-.01-.59-.04-.04,0-.08.01-.1.05-.02.03-.04.07-.03.11.03.16.06.36.09.5.04.21.08.39.1.53.18.87.28,1.2.59,1.18.24-.01.28-.29.41-.51.09-.16.16-.24.29-.31.03-.01.09-.04.16-.05.35-.07.67-.14,1.88-.39v3.86c0,.96-.04,4.28-.09,5.52,0,.31.15.46.46.46.84,0,1.31-.03,1.31-.51-.04-3.33-.04-3.58-.04-5.48v-4.21c.79-.18.96-.22,1.57-.41.14.39.26.94.38,1.56.06.33.22.54.44.54.48,0,.96-.86.96-1.46,0-.42-.23-.96-.9-1.73"/>
          <path class="st2" d="M159.71,26.57c-1.29-.47-2.03-.91-2.76-1.38-1.37-.91-2.93-2.36-4.51-4.21-1.34-1.54-1.91-2.42-2.45-3.76h8.64c.23,0,.4-.14.4-.31,0-.09-.04-.23-.19-.34-.96-.74-1.24-.9-2.2-1.76-.06-.06-.16-.04-.21.03-.39.54-.39.75-.91,1.16-.51.41-1.1.39-1.1.39h-4.73v-2.39s0-.34.04-.44c.06-.16.12-.27.31-.4.26-.18.57-.25.57-.54,0-.38-.39-.46-1.44-.61-.16-.01-.37-.04-.62-.08-.16-.02-.34-.04-.53-.07-.05,0-.09,0-.13.04-.04.04-.05.08-.05.13.06.76.09,1.04.09,1.99v2.37h-7.28c-.29,0-.74.04-1.44-.21-.05-.02-.11,0-.14.03-.04.04-.06.09-.06.14l.12.81s.03.09.06.11c.04.03.08.04.12.03.41-.09.89-.09,1.38-.09h6.55c-.81,1.78-1.42,2.82-2.75,4.66-1.98,2.73-3.48,4.47-6.01,6.4-.06.05-.1.15-.09.21l.04.08c.07.08.31,0,.39-.03,1.22-.59,1.49-.71,2.54-1.51,1.88-1.44,3.7-3.39,5.01-5.09.8-1.03,1.15-1.58,1.61-2.52l-.04,3.16v1.3c0,.92,0,1.93-.01,2.7h-2.74c-.29,0-.74.04-1.45-.21-.05-.02-.11,0-.15.03-.04.04-.06.09-.05.14l.12.82s.03.09.06.11c.04.03.08.04.12.03.41-.09.9-.09,1.39-.09h2.69c0,.88-.01,1.53-.02,2.42v1.91c-.01.3.14.44.45.44.24,0,1.04-.04,1.12-.06.21-.04.26-.19.29-.33v-.96c-.03-.61-.04-1.18-.09-3.26v-.15h4.49c.23,0,.4-.13.4-.31,0-.09-.04-.23-.19-.34-.96-.74-1.24-.9-2.2-1.76-.06-.06-.16-.04-.21.03-.39.54-.39.75-.91,1.16-.43.34-.91.39-1.06.39h-.34v-4.02l-.02-4.16c.91,2.03,1.72,3.4,2.93,4.99,1.62,2.16,3,3.55,4.93,4.96.04.03.08.04.13.03.04,0,.08-.04.11-.07.46-.77,1.11-1.21,1.96-1.36.08-.01.24-.04.24-.14v-.06c0-.11-.21-.19-.26-.21"/>
          <path class="st2" d="M173.24,24.18c-.14-.03-.31-.08-.53-.14-.14-.04-.29-.08-.45-.12-.04,0-.08,0-.11.02-.03.03-.05.06-.05.11v.16c-.09,1.63-.54,3.94-1.3,6.7-.02.08-.01.18.09.19,0,0,.09.01.23-.11.62-.56,1.77-2.97,2.44-5.42.06-.11.14-.19.29-.27.24-.13.55-.16.58-.42.03-.33-.3-.45-1.19-.69"/>
          <path class="st2" d="M179.03,14.21s.03.09.06.11c.04.03.08.04.12.03.41-.09.89-.09,1.36-.09h.16c.27.81.71,1.73,1.16,2.46.51.82.98,1.46,1.76,2.25-1.21,1.11-2.08,1.87-3.78,2.82-.07.04-.1.14-.06.23l.08.18c.04.07.12.09.19.07,1.24-.38,2.64-1.06,4.53-2.38.59.49,1.24.9,1.84,1.27.86.54,1.74.95,2.89,1.39.31.12.61.25.94.36.04.01.09,0,.12,0,.04-.02.06-.06.07-.09.21-.84.69-1.42,1.41-1.78.06-.04.2-.09.17-.19v-.05c-.04-.09-.25-.12-.31-.12-1.31-.08-2.09-.28-2.89-.51-.9-.28-1.96-.69-3.01-1.3,1.19-.99,1.96-2.02,3.04-3.77.16-.24.33-.45.76-.55.17-.04.29-.06.47-.13.17-.07.27-.22.27-.36,0-.08-.03-.18-.14-.27-.75-.59-1.04-.79-1.73-1.53-.04-.05-.13-.04-.17,0-.34.4-.36.55-.76.88-.41.33-.92.31-.92.31h-6.15c-.31,0-.73.05-1.42-.21-.05-.02-.11,0-.14.03-.04.04-.06.09-.05.14l.12.81h-.01ZM182.55,14.26h4.78c-.92,1.66-1.66,2.78-2.76,3.81-.79-.64-1.46-1.41-1.94-2.13-.41-.59-.69-1.14-.89-1.68,0,0,.81,0,.81,0Z"/>
          <path class="st2" d="M178.58,28.64c.5-.03.96-.95.92-1.59-.01-.32-.21-.72-.55-1.21-.77-1.14-1.46-1.59-2.01-2-.17-.13-.27-.07-.27-.07-.07.04-.11.11-.06.21.6,1.24,1.04,2.33,1.34,3.56.2.78.26,1.14.64,1.11"/>
          <path class="st2" d="M192.01,30.84c-.95-.74-1.22-.9-2.17-1.76-.06-.06-.16-.04-.21.03-.38.54-.38.75-.89,1.16s-1.09.39-1.09.39h-2.46v-4.67h5.38c.22,0,.39-.14.39-.31,0-.09-.04-.22-.18-.34-.95-.74-1.11-.74-2.06-1.59-.06-.06-.16-.04-.21.03-.46.56-.66.78-1,1-.55.36-1.09.39-1.09.39h-1.23v-1.52s0-.33.04-.42c.06-.16.12-.26.3-.38.25-.16.56-.24.56-.51,0-.36-.38-.44-1.4-.59-.16-.01-.36-.04-.61-.08-.16-.02-.33-.04-.51-.07-.05,0-.09,0-.13.04-.04.03-.05.08-.04.12.05.6.08.89.08,1.49v1.92h-2.29c-.29,0-.73.04-1.43-.21-.05-.01-.11,0-.14.03-.04.04-.06.09-.05.14l.12.81s.03.08.06.11c.04.02.08.04.12.03.41-.08.89-.09,1.36-.09h2.25v4.68h-4.38c-.29,0-.73.04-1.42-.21-.05-.01-.11,0-.14.04s-.06.09-.06.14l.12.82s.03.09.06.11c.04.03.08.04.12.03.41-.09.89-.09,1.36-.09h12.46s.06,0,.08,0h.12c.23,0,.39-.14.39-.31,0-.09-.04-.23-.18-.34"/>
          <path class="st2" d="M206.39,26.61c.01-.18.06-.41.29-1.07l2.78-8.78c.02-.09-.01-.17-.09-.2l-.21-.06c-.06-.03-.14,0-.17.08-.61,1.54-3.45,7.6-3.73,8.19-.21.41-.46.41-.59.43-.09,0-.31,0-.56-.07-.26-.06-.77-.18-.88-.21-.06-.01-.12.01-.14.06l-.03.07c-.02.06,0,.13.06.16.71.48,1.13,1,1.33,1.24.3.38.45.86.45,1.51,0,.42-.13,1.29-.28,2.23-.05.33-.09.58-.08.76.02.41.27.81.63.85.91.09,1.78-1.07,1.78-2.18,0-.41-.11-.96-.27-1.46-.37-1.17-.3-1.39-.29-1.56"/>
          <path class="st2" d="M223.95,20.23l-.02-.04c-.04-.09-.24-.08-.29-.07-1.21.11-1.96.04-2.73-.06-.14-.02-.29-.05-.43-.07-.29-.06-.57-.12-.89-.19-.89-.22-1.91-.52-2.86-.98,1.36-.98,2.06-1.8,3.14-3.38h3.06c.06,0,.12,0,.16-.01h.02c.23,0,.4-.14.4-.31,0-.09-.04-.23-.18-.34-.96-.74-1.24-.9-2.2-1.76-.06-.06-.16-.04-.21.03-.39.54-.39.75-.91,1.16-.51.41-1.1.39-1.1.39h-2.82v-.49s0-.34.04-.44c.06-.16.13-.28.32-.4.26-.18.59-.25.59-.54,0-.38-.41-.46-1.49-.61-.16-.01-.39-.04-.65-.08-.16-.02-.35-.05-.54-.07-.05,0-.1,0-.14.04-.04.03-.06.08-.05.13.07.76.09,1.04.09,1.99v.49h-4.01c-.29,0-.74.04-1.44-.21-.05-.01-.11,0-.15.03-.04.04-.06.09-.06.14l.12.81s.03.09.06.11c.04.03.08.04.12.03.41-.09.89-.09,1.38-.09h.76c1,1.52,1.85,2.4,3.18,3.41-.52.39-.95.65-1.51.96-1.69.91-2.99,1.57-4.77,2.09-.04.01-.06.04-.09.07l-.02.06s0,.06.01.09l.06.14c.03.06.11.09.18.08,1.29-.23,1.66-.32,2.45-.55,0,4.63-.19,5.71-1.01,7.17-.6,1.08-1.49,1.91-2.53,2.61-.09.06-.1.14-.09.19.04.14.26.11.44.06.96-.22,2.57-1.1,3.49-2.32.64-.84.95-1.51,1.17-2.55h6.16v.76c0,1.69-.01,2.86-.02,3.51v.53s0,.04.01.06c.09.22.24.31.49.31.44,0,.96-.06,1.12-.12.01,0,.02,0,.03-.01.18-.1.21-.24.23-.42-.09-2.44-.09-2.48-.09-4.27v-5.6c.84.29,1.68.51,2.61.69.04,0,.08,0,.11-.02s.05-.06.06-.1c.08-.79.44-1.39,1.06-1.83.06-.04.17-.11.14-.19M212.31,15.45h5.37c-.66,1.01-1.16,1.61-2.41,2.63-1.3-.84-2.27-1.69-2.96-2.63M218.2,26.15h-6.03c.08-.67.11-1.44.15-2.54h5.88v2.54ZM218.2,22.8h-5.87v-1.6c1.14-.48,2.11-.96,3.08-1.54.88.54,1.72.91,2.78,1.36v1.77h0Z"/>
          <path class="st2" d="M256.09,29.93c0-.11-.23-.19-.29-.21,0,0-.02,0-.03,0-.14-.04-.28-.09-.41-.13-.03,0-.06-.02-.09-.03-.66-.21-1.11-.39-1.59-.64h0s-.04-.02-.06-.04h-.01s-.04-.03-.05-.04c0,0-.02-.01-.03-.01-.01,0-.04-.02-.05-.03l-.06-.04s-.01,0-.02,0c-.02,0-.04-.02-.06-.04,0,0-.01,0-.02,0-.02-.01-.04-.02-.06-.04,0,0-.01,0-.01,0-.02-.01-.04-.03-.06-.04h-.01s-.05-.04-.07-.05h0s-.06-.04-.09-.06c-1.79-1.08-3.37-2.54-4.56-4.23-1.13-1.61-1.86-3.17-2.5-5.38h9.05c.23,0,.39-.14.39-.31,0-.09-.04-.23-.18-.34-.96-.74-1.24-.9-2.2-1.76-.06-.06-.16-.04-.21.03-.39.54-.39.75-.91,1.16-.51.41-1.1.39-1.1.39h-5.08c.09-1,.13-1.8.19-3.44h0v-.04s0-.38.04-.49c.06-.19.14-.3.34-.44.29-.19.63-.27.63-.6,0-.41-.43-.51-1.58-.68-.18-.01-.41-.05-.69-.09-.17-.03-.37-.05-.58-.08-.05,0-.11,0-.14.04-.04.04-.06.09-.06.14.06.64.09.97.09,1.58,0,1.29-.06,2.86-.16,4.08h-6.9c-.29,0-.74.04-1.44-.21-.05-.01-.11,0-.14.04-.04.04-.06.09-.06.14l.12.81s.03.09.06.11.08.04.12.03c.41-.09.9-.09,1.38-.09h6.8c-.38,3.81-2.08,7.15-4.91,9.7-.14.13-.29.25-.43.36,0,0-.01.01-.02.01-.02.02-.05.04-.07.06-.02.01-.04.04-.06.05-.01,0-.22.17-.23.19-.34.26-.69.52-1.06.77-.59.39-1.26.8-2.15,1.3-.04.02-.09.08-.11.11-.01.04-.01.08,0,.11,0,.03.01.06.04.08.04.04.09.05.16.04,0,0,1.54-.27,3.09-1.04,1.19-.59,2.23-1.46,3.17-2.32.42-.36.88-.84,1.29-1.36,1.59-1.93,2.59-4.21,3.02-6.93.28,1.16.55,2.03.88,2.87.77,2.03,2.03,4.08,3.55,5.76.04.04.07.08.11.12.01.02.04.04.05.06.02.02.04.04.05.06.03.03.06.06.08.09,0,0,.01.01.02.03.04.04.06.07.1.11h0c.95,1.01,1.76,1.65,3.31,2.62.01,0,.03.01.04.03h.01s.02.01.02.01h.09s.09-.04.11-.09c.29-.56.68-.98,1.16-1.25.41-.21.84-.32.84-.32.08-.02.22-.06.21-.16v-.06Z"/>
          <path class="st2" d="M267.52,20.91c.31,0,.72-.27,1.09-.74.56-.69.87-1.53.99-2.85h13.96c.14,0,.25.04.22.22s-.19.98-.3,1.33-.16.46-.19.59c-.03.13-.11.26.09.35s.49-.1.98-.64.76-.86.96-1.04.34-.29.93-.41c.19-.04.34-.06.53-.14s.31-.25.31-.41c0-.09-.04-.2-.16-.3-.84-.66-1.16-.88-1.96-1.71-.05-.06-.14-.05-.19,0-.38.45-.41.61-.87.98-.4.32-1.11.35-1.29.35h-2.29c.85-.71,1.3-1.17,2.48-2.43.11-.11.24-.18.44-.21.31-.06.7,0,.81-.27.15-.34-.19-.56-1.14-1.08-.15-.07-.34-.18-.57-.3-.14-.08-.31-.17-.49-.26-.04-.02-.09-.03-.14,0-.04.01-.08.05-.09.09-.04.1-.06.19-.09.27-.61,1.55-1.4,3-2.28,4.21h-9.64c-.01-.46-.06-.85-.16-1.19-.06-.21-.14-.31-.24-.33-.13-.02-.15.16-.17.34-.13,1.01-.69,2.21-1.63,3.06-.51.46-.74.69-.74,1.08,0,.24.16.69.3,1,.14.27.31.45.54.45"/>
          <path class="st2" d="M286.88,24.54c-.96-.74-1.24-.9-2.2-1.76-.06-.06-.16-.04-.21.03-.39.54-.39.75-.91,1.16-.52.41-1.1.39-1.1.39h-4.93v-.36s0-.03.01-.04c.06-.16.12-.26.29-.38.24-.17.54-.24.54-.52h0v-.04c0-.11-.04-.18-.1-.24.77-.41,1.43-.85,2.71-1.78.18-.13.38-.3.69-.39s1.1-.16,1.1-.54c0-.2-.16-.36-.34-.49-.51-.41-.76-.59-1.19-.91l-.34-.25c-.06-.05-.17-.03-.22.03-.36.41-.56.89-1.14.91s-.95.01-.95.01h-6.58c-.56,0-1.07-.04-1.66-.15-.05,0-.1,0-.14.04-.04.04-.06.09-.04.14l.13.76c.01.09.09.14.18.13.66-.09.91-.11,1.56-.11h7.35c-.81,1.1-1.28,1.61-2.05,2.29-.68-.13-1.21-.21-1.59-.27-.04,0-.09,0-.13.04-.03.03-.05.08-.05.12.04,1.22.04,1.35.04,1.78v.21h-7.42c-.29,0-.74.04-1.44-.21-.05-.01-.11,0-.14.04-.04.04-.06.09-.05.14l.12.81s.03.09.06.11c.04.03.09.04.12.03.41-.09.9-.09,1.38-.09h7.37v4.33c0,.11-.01.26-.01.26,0,0,.01.48-.36.48-.35,0-.59-.02-.59-.02-1.38-.11-1.7-.15-3.31-.34-.04,0-.11.01-.15.05-.04.03-.06.08-.05.14.02.16.19.19.26.2,1.96.34,2.56.69,3.17,1.86.04.06.08.12.17.12h.04c.86-.04,1.46-.19,1.91-.46.62-.34.84-.69.88-1.42-.02-1.37-.02-2-.02-2.94v-2.26h9.14c.23,0,.39-.13.39-.31,0-.09-.04-.23-.18-.34"/>
          <path class="st2" d="M112.96,40.88v6.18c.03,3.09-.26,4.01-1.91,6.15l-.34-.22c.84-1.66.99-2.56.98-5.68v-6.42h1.28Z"/>
          <path class="st2" d="M118.82,45.99c0-1.16-.31-1.57-1.23-1.57s-1.24.4-1.24,1.38h-1.19c.01-1.13.89-1.76,2.43-1.76.8,0,1.44.19,1.83.56s.54.8.54,1.66v3.8h-1.11v-1.28c-.44,1.02-1.01,1.41-2.05,1.41-1.2,0-1.96-.66-1.96-1.71,0-.73.44-1.34,1.17-1.58.66-.24,1.42-.33,2.8-.36,0,0,0-.56,0-.56ZM116.69,47.22c-.44.26-.65.65-.65,1.22,0,.81.4,1.26,1.1,1.26s1.34-.51,1.53-1.28c.11-.4.15-.77.15-1.53-1.07,0-1.75.09-2.13.31"/>
          <path class="st2" d="M123.09,44.17v1.46c.18-.58.33-.81.69-1.11.4-.31.87-.48,1.41-.48.8,0,1.54.37,2,1.01.36.48.56,1.25.56,2.09,0,1.87-1.01,3.06-2.56,3.06-.98,0-1.66-.49-2.03-1.46v5.15h-1.14v-9.72s1.09,0,1.09,0ZM123.16,47.11c0,1.59.74,2.64,1.84,2.64.99,0,1.51-.89,1.51-2.6,0-.96-.12-1.59-.39-2.03-.24-.4-.68-.65-1.13-.65-1.1,0-1.84,1.06-1.84,2.64"/>
          <path class="st2" d="M133.27,45.99c0-1.16-.31-1.57-1.23-1.57s-1.24.4-1.24,1.38h-1.19c.01-1.13.89-1.76,2.43-1.76.8,0,1.44.19,1.83.56s.54.8.54,1.66v3.8h-1.11v-1.28c-.44,1.02-1.01,1.41-2.05,1.41-1.2,0-1.96-.66-1.96-1.71,0-.73.44-1.34,1.17-1.58.66-.24,1.42-.33,2.8-.36,0,0,0-.56,0-.56ZM131.13,47.22c-.44.26-.65.65-.65,1.22,0,.81.4,1.26,1.1,1.26s1.34-.51,1.53-1.28c.11-.4.15-.77.15-1.53-1.07,0-1.75.09-2.13.31"/>
          <path class="st2" d="M137.51,45.84c.26-1.16,1.05-1.8,2.21-1.8.7,0,1.24.24,1.56.7.28.39.37.77.37,1.5v3.82h-1.14v-3.73c0-.77-.06-1.07-.26-1.35-.18-.28-.49-.43-.87-.43-.58,0-1.13.36-1.41.91-.26.55-.39,1.22-.39,2.24v2.35h-1.14v-5.88h1.07v1.66h0Z"/>
          <path class="st2" d="M148.3,40.88v5.79c0,.89.14,1.56.4,2.02.37.64,1.16,1.04,2.05,1.04s1.69-.39,2.13-.99c.36-.51.51-1.14.51-2.23v-5.64h.62v5.64c0,1.22-.18,1.91-.65,2.53-.58.77-1.57,1.19-2.8,1.19-1.42,0-2.55-.52-3.08-1.46-.34-.58-.47-1.21-.47-2.41v-5.49h1.29Z"/>
          <path class="st2" d="M157.18,45.84c.26-1.16,1.05-1.8,2.21-1.8.7,0,1.24.24,1.56.7.28.39.37.77.37,1.5v3.82h-1.14v-3.73c0-.77-.06-1.07-.26-1.35-.18-.28-.49-.43-.87-.43-.58,0-1.13.36-1.41.91-.26.55-.39,1.22-.39,2.24v2.35h-1.14v-5.88h1.07v1.66h0Z"/>
          <path class="st2" d="M164.74,41.37c0,.44-.31.71-.81.71-.47,0-.79-.29-.79-.71s.3-.71.8-.71.8.28.8.71M164.5,50.06h-1.14v-5.88h1.14v5.88Z"/>
          <polygon class="st2" points="166.07 44.17 167.36 44.17 169.17 48.93 170.81 44.17 171.66 44.17 169.14 50.16 168.47 50.16 166.07 44.17"/>
          <path class="st2" d="M173.77,47.16c0,1.72.66,2.64,1.87,2.64.88,0,1.56-.55,1.81-1.46h.58c-.31,1.22-1.17,1.86-2.53,1.86-1.81,0-2.93-1.21-2.93-3.11s1.11-3.06,2.85-3.06c1.17,0,2.09.58,2.46,1.53.18.47.26.94.28,1.59h-4.38,0ZM176.91,46.77c0-.47-.09-.91-.22-1.34-.25-.69-.66-1.01-1.31-1.01-.7,0-1.17.39-1.42,1.2-.12.39-.18.76-.18,1.16h3.13Z"/>
          <path class="st2" d="M181.07,44.17v1.69c.34-1.16,1.06-1.75,2.23-1.81v1.38c-.41-.16-.66-.24-.95-.24-.76,0-1.21.59-1.21,1.57v3.3h-1.14v-5.88h1.08Z"/>
          <path class="st2" d="M185.76,48.24c-.01,1.06.44,1.56,1.39,1.56.73,0,1.26-.46,1.26-1.07,0-.49-.33-.81-1.11-1.03l-.74-.21c-.59-.16-.83-.26-1.11-.47-.41-.29-.64-.71-.64-1.21,0-1.04.91-1.78,2.21-1.78s2.02.59,2.13,1.78h-1.11c-.01-.47-.04-.67-.12-.84-.16-.36-.52-.55-1.02-.55-.68,0-1.14.41-1.14,1.01,0,.51.31.81,1.02,1.01l.99.29c1.09.29,1.57.8,1.57,1.62,0,1.13-.89,1.86-2.28,1.86-1.51,0-2.41-.71-2.43-1.95h1.16-.01Z"/>
          <path class="st2" d="M192.64,41.37c0,.44-.31.71-.81.71-.47,0-.79-.29-.79-.71s.3-.71.8-.71.8.28.8.71M192.41,50.06h-1.14v-5.88h1.14v5.88Z"/>
          <path class="st2" d="M196.51,44.17h1.78v.44h-1.78v3.81c0,.95.19,1.26.79,1.26.22,0,.34-.03.95-.16v.44c-.7.18-1.02.24-1.38.24-.52,0-.98-.22-1.23-.59-.21-.3-.28-.62-.28-1.21v-3.78h-1.05v-.44h1.05v-1.69l1.14-.28v1.96h0Z"/>
          <path class="st2" d="M201.3,44.17l1.93,4.54,1.59-4.54h.84l-2.95,7c-.81,2.06-1.53,2.75-2.93,2.79v-1.04c1.51-.01,1.91-.33,2.58-2.12l.28-.71-2.61-5.91h1.28Z"/>
          <path class="st2" d="M217.94,44.61h-1.11v-.44h1.11c0-2.48,1.17-3.88,3.29-3.93v1.21c-.4-.24-.73-.33-1.09-.33-.83,0-1.35.65-1.35,1.65,0,.29,0,.31.16.98.05.2.08.34.09.43h1.47v.44h-1.45v5.45h-1.14v-5.45h0Z"/>
          <polygon class="st2" points="231.12 41.35 226.78 41.35 226.78 45.11 230.65 45.11 230.65 45.57 226.78 45.57 226.78 49.59 231.34 49.59 231.34 50.06 225.5 50.06 225.5 40.88 231.12 40.88 231.12 41.35"/>
          <path class="st2" d="M237.82,48.27c-.06.44-.14.69-.31.96-.39.62-1.14.96-2.09.96-1.73,0-2.83-1.19-2.83-3.06s1.14-3.11,2.92-3.11c1.45,0,2.4.84,2.42,2.13h-1.19c0-1.17-.41-1.73-1.26-1.73-1.1,0-1.64.89-1.64,2.72,0,.99.12,1.53.46,1.98.3.41.76.64,1.29.64.94,0,1.57-.56,1.69-1.5h.55,0Z"/>
          <path class="st2" d="M245.5,47.19c0,1.86-1.17,3.06-2.99,3.06s-2.98-1.21-2.98-3.12,1.16-3.13,3.01-3.13,2.95,1.21,2.95,3.19M240.76,47.14c0,1.8.58,2.71,1.72,2.71s1.76-.89,1.76-2.71-.55-2.75-1.75-2.75-1.73.92-1.73,2.75"/>
          <path class="st2" d="M248.25,45.84c.26-1.16,1.05-1.8,2.21-1.8.7,0,1.24.24,1.56.7.28.39.37.77.37,1.5v3.82h-1.14v-3.73c0-.77-.06-1.07-.26-1.35-.18-.28-.49-.43-.86-.43-.58,0-1.13.36-1.41.91-.26.55-.39,1.22-.39,2.24v2.35h-1.14v-5.88h1.07v1.66h0Z"/>
          <path class="st2" d="M260.01,47.19c0,1.86-1.17,3.06-2.98,3.06s-2.98-1.21-2.98-3.12,1.16-3.13,3.01-3.13,2.95,1.21,2.95,3.19M255.29,47.14c0,1.8.58,2.71,1.72,2.71s1.76-.89,1.76-2.71-.55-2.75-1.75-2.75-1.73.92-1.73,2.75"/>
          <path class="st2" d="M215.65,47.19c0,1.86-1.17,3.06-2.98,3.06s-2.98-1.21-2.98-3.12,1.16-3.13,3.01-3.13,2.95,1.21,2.95,3.19M210.93,47.14c0,1.8.58,2.71,1.72,2.71s1.76-.89,1.76-2.71-.55-2.75-1.75-2.75-1.73.92-1.73,2.75"/>
          <path class="st2" d="M262.74,45.71c.31-1.1,1.07-1.68,2.21-1.68,1.04,0,1.63.48,1.86,1.54.37-1.04,1.06-1.54,2.11-1.54,1.2,0,1.88.74,1.88,2.03v3.99h-1.14v-3.81c0-.67-.04-.96-.18-1.21-.18-.33-.54-.54-.94-.54-.49,0-.96.26-1.24.7-.34.54-.49,1.25-.49,2.43v2.42h-1.14v-3.61c0-.64-.04-.98-.14-1.28-.14-.41-.49-.65-.96-.65-.56,0-1.07.33-1.36.88-.28.51-.37,1.09-.37,2.12v2.54h-1.14v-5.88h1.05v1.54h0Z"/>
          <path class="st2" d="M274.22,41.37c0,.44-.31.71-.81.71-.47,0-.79-.29-.79-.71s.3-.71.8-.71.8.28.8.71M273.99,50.06h-1.14v-5.88h1.14v5.88Z"/>
          <path class="st2" d="M280.86,48.27c-.06.44-.14.69-.31.96-.39.62-1.14.96-2.09.96-1.73,0-2.83-1.19-2.83-3.06s1.14-3.11,2.92-3.11c1.44,0,2.4.84,2.42,2.13h-1.19c0-1.17-.41-1.73-1.26-1.73-1.1,0-1.64.89-1.64,2.72,0,.99.12,1.53.46,1.98.3.41.76.64,1.29.64.94,0,1.57-.56,1.69-1.5h.55,0Z"/>
          <path class="st2" d="M283.52,48.24c-.01,1.06.44,1.56,1.39,1.56.73,0,1.26-.46,1.26-1.07,0-.49-.33-.81-1.11-1.03l-.74-.21c-.59-.16-.83-.26-1.11-.47-.41-.29-.64-.71-.64-1.21,0-1.04.91-1.78,2.21-1.78s2.02.59,2.13,1.78h-1.11c-.01-.47-.04-.67-.12-.84-.16-.36-.52-.55-1.02-.55-.67,0-1.14.41-1.14,1.01,0,.51.31.81,1.02,1.01l.99.29c1.09.29,1.57.8,1.57,1.62,0,1.13-.89,1.86-2.28,1.86-1.51,0-2.41-.71-2.43-1.95h1.16-.01Z"/>
        </g>
      </g>
    </g>
  </g>
</svg>